<svg id="eOyEhAlTwWS1" xmlns="http://www.w3.org/2000/svg" xmlns:xlink="http://www.w3.org/1999/xlink" viewBox="0 0 640 640" shape-rendering="geometricPrecision" text-rendering="geometricPrecision" project-id="c74c776c42c14b09b13f88904f59a3ae" export-id="5f9aa947ee8a4bbcaa7968bf4d265f67" cached="false" style="background-color:rgba(255,255,255,0)"><circle r="27.162532" transform="matrix(6.240258-.122705 0.122478 6.228715 301.493158 304.86792)" fill="#9138a5"/><g transform="matrix(1.147198 0 0 1.103366 76.269327-7.499948)"><g><path d="M303.47,357.75c0-18.19-16-18.19-16-36.39s16-18.19,16-36.39-16-18.19-16-36.38s16-18.19,16-36.39-16-18.19-16-36.38v-11.55c-.131808-45.061432-36.628568-81.558192-81.69-81.69v0c-19.972829.00673-39.244509,7.364425-54.14,20.67-22.006223,4.325195-37.906545,23.572953-38,46v26.53c0,18.19-16,18.19-16,36.38s16,18.19,16,36.39-16,18.19-16,36.38s16,18.19,16,36.39-16,18.19-16,36.39Z" fill="#804b2c"/><path d="M274.82,212.2c0-18.19-19.12-18.19-19.12-36.38v-11.55c0-1.22,0-2.43-.11-3.64h-110.15v15.18c0,18.19-19.12,18.19-19.12,36.38s19.12,18.19,19.12,36.39-19.12,18.2-19.12,36.42s19.12,18.19,19.12,36.39-19.12,18.19-19.12,36.39h148.5c0-18.2-19.12-18.2-19.12-36.39s19.12-18.19,19.12-36.39-19.12-18.19-19.12-36.39s19.12-18.21,19.12-36.41Z" fill="#5c3520"/></g><g transform="matrix(1 0 0 1.0266 0 0)"><path d="M304.7,368v-25.69c-.087798-30.730689-24.969363-55.625655-55.7-55.73h-3.52c-11.045695,0-20-8.954305-20-20v-20.05h-51.23v20.09c0,11.045695-8.954305,20-20,20h-3.52c-30.742353.087883-55.642117,24.987647-55.73,55.73v25.65c0,4.633669,3.756331,8.39,8.39,8.39h192.92c4.633669,0,8.39-3.756331,8.39-8.39Z" fill="#f7c299"/><path d="M174.25,246.53v20.09c-.022782,4.66418-1.694734,9.169949-4.72,12.72c9.203861,5.01279,19.519592,7.632985,30,7.62h.75c10.480355.012558,20.795981-2.607611,30-7.62-3.025266-3.550051-4.697218-8.05582-4.72-12.72v-20.09Z" fill="#e3a57e"/><g><path d="M249,282.58h-3.52c-5.111446-.006123-9.909501-2.464662-12.9-6.61-8.159373,5.953833-17.999332,9.16145-28.1,9.16h-9.18c-10.097217.009472-19.936654-3.18747-28.1-9.13-2.990499,4.145338-7.788554,6.603877-12.9,6.61h-3.52c-15.841381,0-31.03394,6.292964-42.235488,17.494512s-17.494512,26.394107-17.494512,42.235488v30c-.81261,6.107889,2.238757,10.434418,8.951761,15.688062c59.720758,61.237889,158.108892,47.15735,200.283088-7.285523c4.355413-3.621861,6.443465-7.150493,6.386848-9.702764L308.7,342.34c.007958-15.841382-6.277374-31.037103-17.473297-42.244277s-26.385321-17.507769-42.226703-17.515723Z" transform="translate(1.110215 1.617129)" fill="#213b85"/><circle r="10.31" transform="translate(245.677309 401.150731)" fill="#ffc57d"/><circle r="10.31" transform="translate(199.781909 405.888403)" fill="#ffc57d"/><circle r="10.31" transform="translate(134.915468 397.044738)" fill="#ffc57d"/><circle r="10.31" transform="translate(120.57 337.35)" fill="#ffc57d"/><circle r="10.31" transform="translate(159.240379 367.671135)" fill="#ffc57d"/><circle r="10.31" transform="translate(152.46 302.42)" fill="#ffc57d"/><circle r="10.31" transform="translate(187.39 337.35)" fill="#ffc57d"/><circle r="10.31" transform="translate(228.631619 369.860413)" fill="#ffc57d"/><path d="M282.37,292.82c-4.484909,1.742951-7.167836,6.356402-6.4647,11.116432s4.605341,8.400747,9.402636,8.772562s9.213877-2.624153,10.642064-7.218994c-3.844125-4.900276-8.425282-9.174448-13.58-12.67Z" fill="#ffc57d"/><circle r="10.31" transform="translate(254.21 337.35)" fill="#ffc57d"/><circle r="10.31" transform="translate(219.28 302.42)" fill="#ffc57d"/><path d="M178.21,307.07v0c11.95433-.032962,21.637038-9.71567,21.67-21.67v-4.27h-4.58c-9.256874.011087-18.276484-2.92773-25.75-8.39l-.39-.28c-1.571884-1.137817-3.768108-.788927-4.91.78l-.28.39c-1.390557,1.910707-3.314312,3.368308-5.53,4.19-1.138777.45353-1.8871,1.554237-1.89,2.78v4.81c.038422,11.946536,9.713464,21.621578,21.66,21.66Z" fill="#f2e3d5"/><path d="M221.54,307.07v0c-11.95433-.032962-21.637038-9.71567-21.67-21.67v-4.27h4.58c9.256874.011087,18.276484-2.92773,25.75-8.39l.39-.28c1.571884-1.137817,3.768108-.788927,4.91.78l.28.39c1.489423,2.050448,3.589778,3.576706,6,4.36.830437.261153,1.396569,1.029474,1.4,1.9v5.52c-.038357,11.938766-9.701275,21.610614-21.64,21.66Z" fill="#f2e3d5"/><line x1="140.99" y1="348.39" x2="140.99" y2="371.97" fill="none" stroke="#102970" stroke-width="8" stroke-linecap="round" stroke-miterlimit="10"/><line x1="258.75" y1="348.39" x2="258.75" y2="371.97" fill="none" stroke="#102970" stroke-width="8" stroke-linecap="round" stroke-miterlimit="10"/></g></g><g transform="translate(0 10.613216)"><circle r="19.5" transform="translate(262.12 195.27)" fill="#f7c299"/><circle r="19.5" transform="translate(137.62 195.27)" fill="#f7c299"/><path d="M197,100.18h7.14c15.891772,0,31.132659,6.312982,42.369838,17.550162s17.550162,26.478066,17.550162,42.369838v41.27c0,34.860213-28.259787,63.12-63.12,63.12h-.75c-16.740465,0-32.795284-6.650124-44.63258-18.48742s-18.48742-27.892115-18.48742-44.63258v-41.26c-.002653-15.895237,6.310531-31.140209,17.550161-42.379839s26.484602-17.552814,42.379839-17.550161Z" fill="#f7c299"/><g><path d="M257,115.67c-11.69-16.3-31.56-27-54.11-27h-5.34c-36,0-65.12,27.28-65.12,60.94v43.31c.010956,2.563572,2.086428,4.639044,4.65,4.65h.08c2.563572-.010956,4.639044-2.086428,4.65-4.65v-24c-.006499-19.373342,10.086109-37.349023,26.63-47.43h35.89v24.72c.032991,14.345716,11.654284,25.967009,26,26h28.45v20.73c.114791,2.465336,2.146993,4.405116,4.615,4.405116s4.500209-1.93978,4.615-4.405116v-50.18c.009807-10.12156-3.942027-19.845012-11.01-27.09Z" fill="#804b2c"/><path d="M141.8,169.05v-.16c-.008028-19.376391,10.084525-37.355764,26.63-47.44-2.435281-1.074964-5.068019-1.630121-7.73-1.63-10.63,0-18.91,8.91-18.91,19.54v29.69Z" fill="#5c3520"/><path d="M204.3,121.45c-.230012-9.740262-8.192023-17.516473-17.935-17.516473s-17.704988,7.776211-17.935,17.516473Z" fill="#5c3520"/><path d="M163.24,108.44c3.119155-3.25377,6.598167-6.142324,10.37-8.61" fill="none" stroke="#a36039" stroke-width="6" stroke-linecap="round" stroke-miterlimit="10"/></g><path d="M190,223.72c2.187309,3.714044,6.146374,6.025788,10.455912,6.10533s8.351214-2.084532,10.674088-5.71533" fill="none" stroke="#de9f6f" stroke-width="4" stroke-linecap="round" stroke-miterlimit="10"/><path d="M207.23,205.13c-1.379305-2.340156-3.874208-3.796887-6.590126-3.847861s-5.263727,1.31111-6.729874,3.597861" fill="none" stroke="#cf946d" stroke-width="4" stroke-linecap="round" stroke-miterlimit="10"/><g><ellipse rx="6.88" ry="7.43" transform="translate(168.37 190.11)"/><ellipse rx="6.88" ry="7.43" transform="translate(231.38 190.11)"/></g><g><line x1="219.71" y1="158.35" x2="243.04" y2="158.35" fill="none" stroke="#a36039" stroke-width="8" stroke-linecap="round" stroke-miterlimit="10"/><line x1="156.71" y1="158.35" x2="180.03" y2="158.35" fill="none" stroke="#a36039" stroke-width="8" stroke-linecap="round" stroke-miterlimit="10"/></g></g></g><circle r="10.31" transform="translate(403.948781 422.538768)" fill="#ffc57d"/></svg>
